# xmcd
#
# Track frame offsets:
#	150
#	20640
#	49137
#	72895
#	89613
#	119685
#	137817
#	154337
#
# Disc length: 2460 seconds
#
# Revision: 1
# Processed by: cddbd v1.5.1PL0 Copyright (c) Steve Scherf et al.
# Submitted via: CDex 1.50Beta5
#
DISCID=75099a08
DTITLE=鈴木雄大 - Jellyfishとラブソング
DYEAR=1900
DGENRE=Pop
TTITLE0=In my way,Day by day,Make me day
TTITLE1=真夜中にベルが鳴る
TTITLE2=奇妙な人
TTITLE3=I wish I'm on my way
TTITLE4=おひる
TTITLE5=君の上にある空
TTITLE6=虹
TTITLE7=Rainy Summer
EXTD=
EXTT0=
EXTT1=
EXTT2=
EXTT3=
EXTT4=
EXTT5=
EXTT6=
EXTT7=
PLAYORDER=
